<svg id="Capa_1" enable-background="new 0 0 512 512" height="512" viewBox="0 0 512 512" width="512" xmlns="http://www.w3.org/2000/svg"><g><g><g><path d="m331.308 211.152c-1.141 6.386-4.361 19.953-11.982 27.777-3.348 3.436-4.073 8.593-1.808 12.833 1.948 3.643 5.682 5.831 9.688 5.83.67 0 1.348-.061 2.026-.187 35.589-6.599 50.767-21.126 57.221-32.761 60.854-.973 110.058-50.779 110.058-111.859 0-61.573-50.09-111.759-111.661-111.875-.069 0-.137 0-.207 0-12.266 0-24.334 1.984-35.869 5.897-3.909 1.326-6.003 5.57-4.677 9.478 1.326 3.909 5.575 6.001 9.478 4.677 9.986-3.388 20.438-5.105 31.068-5.105h.18c53.343.1 96.741 43.581 96.741 96.928 0 53.446-43.481 96.927-96.956 96.927-4.541 0-8.631 2.542-10.674 6.634-6.605 13.234-23.399 20.332-37.134 24.035 6.032-10.237 8.592-22.054 9.649-29.203.74-5-1.775-9.916-6.255-12.231-32.373-16.735-52.483-49.75-52.484-86.16 0-30.106 13.693-58.016 37.567-76.569 3.259-2.533 3.848-7.228 1.315-10.487-2.533-3.26-7.229-3.848-10.487-1.315-27.544 21.406-43.342 53.616-43.342 88.371 0 41.257 22.374 78.738 58.545 98.365z"/><path d="m124.871 198.994c-4.128 0-7.474 3.346-7.474 7.474v12.602c0 4.128 3.346 7.474 7.474 7.474s7.474-3.346 7.474-7.474v-12.602c0-4.128-3.346-7.474-7.474-7.474z"/><path d="m182.409 198.994c-4.128 0-7.474 3.346-7.474 7.474v12.602c0 4.128 3.346 7.474 7.474 7.474 4.127 0 7.474-3.346 7.474-7.474v-12.602c-.001-4.128-3.347-7.474-7.474-7.474z"/><path d="m158.072 254.73c-1.117 1.196-2.633 1.854-4.268 1.854-1.693 0-3.301-.734-4.413-2.013-2.705-3.116-7.426-3.448-10.543-.742-3.116 2.706-3.448 7.427-.742 10.543 3.952 4.55 9.673 7.159 15.697 7.159 5.734 0 11.27-2.403 15.187-6.593 2.819-3.016 2.659-7.745-.356-10.563-3.013-2.819-7.742-2.658-10.562.355z"/><path d="m499.044 459.478h-207.251v-160.926c0-7.147-5.814-12.961-12.961-12.961h-15.364v-57.404c2.578-3.719 4.094-8.228 4.094-13.087v-.198c0-4.858-1.516-9.367-4.094-13.087v-42.663c0-60.559-49.268-109.828-109.828-109.828-60.559 0-109.828 49.269-109.828 109.828v42.664c-2.578 3.719-4.094 8.228-4.094 13.087v.198c0 4.858 1.516 9.367 4.094 13.086v57.405h-15.363c-7.147 0-12.961 5.814-12.961 12.961v48.963c0 4.128 3.346 7.474 7.474 7.474s7.474-3.346 7.474-7.474v-46.977h246.411v158.94h-246.412v-78.126c0-4.128-3.346-7.474-7.474-7.474s-7.474 3.346-7.474 7.474v78.126h-2.533c-7.142-.001-12.954 5.812-12.954 12.956v25.701c0 7.144 5.812 12.955 12.956 12.955h486.088c7.144 0 12.956-5.812 12.956-12.955v-25.701c0-7.144-5.812-12.957-12.956-12.957zm-440.284-300.326c0-52.318 42.563-94.881 94.881-94.881s94.881 42.563 94.881 94.881v33.071c-1.297-.228-2.63-.353-3.991-.353h-2.778v-10.161c0-4.244-3.69-7.709-7.913-7.461-47.388 2.782-73.56-25.045-74.678-26.261-1.607-1.749-4.269-2.733-6.633-2.441-2.332.288-4.163 2.261-5.758 3.804-.912.883-1.859 1.731-2.823 2.556-7.343 6.28-15.829 11.258-24.748 14.934-14.449 5.957-30.182 8.319-45.76 7.407-2.151-.126-4.292.715-5.795 2.257-1.686 1.73-2.118 4.325-2.118 6.664v8.701h-2.776c-1.362 0-2.694.126-3.991.353v-33.07zm-4.094 55.948v-.198c0-4.459 3.627-8.086 8.085-8.086h2.776v16.368h-2.776c-4.459.001-8.085-3.626-8.085-8.084zm4.094 70.491v-47.812c1.297.228 2.63.353 3.991.353h3.382c2.081 18.025 9.606 34.414 20.909 47.459zm139.914 0h-90.036c-17.101-13.381-28.131-34.175-28.162-57.515v-28.733c0-.01-.001-.019-.001-.029v-9.932c37.697-.127 62.699-17.227 73.165-26.129 10.465 8.903 35.465 26.002 73.166 26.129v9.961 28.633c0 23.372-11.021 44.212-28.132 57.615zm49.848 0h-28.281c11.302-13.045 18.826-29.434 20.906-47.459h3.383c1.362 0 2.694-.126 3.991-.353v47.812zm4.093-70.491c0 4.458-3.627 8.085-8.085 8.085h-2.778v-16.368h2.778c4.458 0 8.085 3.627 8.085 8.086zm244.438 281.044h-482.106v-21.718h482.106z"/><path d="m178.033 380.008c0-16.494-13.419-29.914-29.914-29.914-16.494 0-29.914 13.419-29.914 29.914s13.419 29.914 29.914 29.914 29.914-13.419 29.914-29.914zm-44.88 0c0-8.253 6.714-14.967 14.967-14.967s14.967 6.714 14.967 14.967-6.714 14.967-14.967 14.967-14.967-6.714-14.967-14.967z"/><path d="m334.849 83.379h99.576c4.128 0 7.474-3.346 7.474-7.474s-3.346-7.474-7.474-7.474h-99.576c-4.128 0-7.474 3.346-7.474 7.474 0 4.129 3.346 7.474 7.474 7.474z"/><path d="m441.898 107.425c0-4.128-3.346-7.474-7.474-7.474h-99.576c-4.128 0-7.474 3.346-7.474 7.474s3.346 7.474 7.474 7.474h99.576c4.129 0 7.474-3.346 7.474-7.474z"/><path d="m334.849 131.472c-4.128 0-7.474 3.346-7.474 7.474s3.346 7.474 7.474 7.474h59.743c4.128 0 7.474-3.346 7.474-7.474s-3.346-7.474-7.474-7.474z"/></g></g></g></svg>